<?xml version="1.0" standalone="no"?>
<!DOCTYPE svg PUBLIC "-//W3C//DTD SVG 20010904//EN"
 "http://www.w3.org/TR/2001/REC-SVG-20010904/DTD/svg10.dtd">
<svg version="1.0" xmlns="http://www.w3.org/2000/svg"
 width="700.000000pt" height="700.000000pt" viewBox="0 0 700.000000 700.000000"
 preserveAspectRatio="xMidYMid meet">
<metadata>
Created by potrace 1.14, written by Peter Selinger 2001-2017
</metadata>
<g transform="translate(0.000000,700.000000) scale(0.100000,-0.100000)"
fill="#000000" stroke="none">
<path d="M2533 4652 c-141 -51 -224 -191 -195 -330 51 -243 347 -322 510 -137
158 180 40 462 -201 481 -45 3 -76 0 -114 -14z"/>
<path d="M4283 4652 c-141 -51 -224 -191 -195 -330 51 -243 347 -322 510 -137
158 180 40 462 -201 481 -45 3 -76 0 -114 -14z"/>
<path d="M2251 3199 c-176 -54 -262 -260 -175 -420 37 -67 190 -228 308 -323
632 -508 1412 -553 2071 -119 184 121 410 335 469 443 37 67 44 146 22 225
-14 46 -29 70 -75 116 -70 69 -138 95 -232 86 -84 -7 -141 -43 -246 -155 -350
-376 -807 -510 -1241 -365 -187 62 -350 169 -524 344 -70 71 -146 138 -170
150 -49 25 -154 34 -207 18z"/>
</g>
</svg>
