<svg width="24" height="24" viewBox="0 0 24 24" fill="none" xmlns="http://www.w3.org/2000/svg">
<path fill-rule="evenodd" clip-rule="evenodd" d="M2.23223 4.23223C2.70107 3.76339 3.33696 3.5 4 3.5H11C11.2761 3.5 11.5 3.72386 11.5 4C11.5 4.27614 11.2761 4.5 11 4.5H4C3.60218 4.5 3.22064 4.65804 2.93934 4.93934C2.65804 5.22064 2.5 5.60218 2.5 6V20C2.5 20.3978 2.65804 20.7794 2.93934 21.0607C3.22064 21.342 3.60218 21.5 4 21.5H18C18.3978 21.5 18.7794 21.342 19.0607 21.0607C19.342 20.7794 19.5 20.3978 19.5 20V13C19.5 12.7239 19.7239 12.5 20 12.5C20.2761 12.5 20.5 12.7239 20.5 13V20C20.5 20.663 20.2366 21.2989 19.7678 21.7678C19.2989 22.2366 18.663 22.5 18 22.5H4C3.33696 22.5 2.70107 22.2366 2.23223 21.7678C1.76339 21.2989 1.5 20.663 1.5 20V6C1.5 5.33696 1.76339 4.70107 2.23223 4.23223Z" fill="#999999"/>
<path fill-rule="evenodd" clip-rule="evenodd" d="M20 2.37866C19.57 2.37866 19.1576 2.54948 18.8536 2.85354L9.45149 12.2556L8.68719 15.3128L11.7444 14.5485L21.1465 5.14643C21.4505 4.84237 21.6213 4.42998 21.6213 3.99998C21.6213 3.56998 21.4505 3.15759 21.1465 2.85354C20.8424 2.54948 20.43 2.37866 20 2.37866ZM18.1465 2.14643C18.6381 1.65484 19.3048 1.37866 20 1.37866C20.6952 1.37866 21.362 1.65484 21.8536 2.14643C22.3452 2.63802 22.6213 3.30476 22.6213 3.99998C22.6213 4.6952 22.3452 5.36194 21.8536 5.85354L12.3536 15.3535C12.2895 15.4176 12.2092 15.4631 12.1213 15.4851L8.12128 16.4851C7.95089 16.5277 7.77065 16.4777 7.64646 16.3535C7.52227 16.2293 7.47234 16.0491 7.51494 15.8787L8.51494 11.8787C8.53692 11.7908 8.58238 11.7105 8.64646 11.6464L18.1465 2.14643Z" fill="#999999"/>
</svg>
