<svg width="107" height="22" viewBox="0 0 107 22" fill="none" xmlns="http://www.w3.org/2000/svg">
<path d="M7.68 17.264C6.24 17.264 4.992 17.016 3.936 16.52C2.896 16.008 2.096 15.288 1.536 14.36C0.976 13.432 0.696 12.336 0.696 11.072C0.696 9.872 0.96 8.808 1.488 7.88C2.032 6.952 2.768 6.232 3.696 5.72C4.64 5.192 5.712 4.928 6.912 4.928C8.096 4.928 9.12 5.176 9.984 5.672C10.864 6.168 11.536 6.88 12 7.808C12.48 8.72 12.72 9.792 12.72 11.024V11.96H4.776C4.92 12.728 5.24 13.28 5.736 13.616C6.232 13.952 6.92 14.12 7.8 14.12C8.408 14.12 9.04 14.032 9.696 13.856C10.368 13.664 10.96 13.392 11.472 13.04L12.528 15.848C11.92 16.28 11.176 16.624 10.296 16.88C9.416 17.136 8.544 17.264 7.68 17.264ZM7.104 7.688C6.464 7.688 5.936 7.88 5.52 8.264C5.12 8.648 4.864 9.208 4.752 9.944H9.216C9.168 9.192 8.96 8.632 8.592 8.264C8.24 7.88 7.744 7.688 7.104 7.688ZM18.6645 17.264C17.7525 17.264 16.9445 17.096 16.2405 16.76C15.5525 16.424 15.0085 15.968 14.6085 15.392C14.2245 14.8 14.0325 14.128 14.0325 13.376C14.0325 12.528 14.2565 11.856 14.7045 11.36C15.1525 10.848 15.8725 10.488 16.8645 10.28C17.8565 10.056 19.1765 9.944 20.8245 9.944H21.7365V9.608C21.7365 9.032 21.5845 8.624 21.2805 8.384C20.9925 8.144 20.4885 8.024 19.7685 8.024C19.1605 8.024 18.4885 8.12 17.7525 8.312C17.0165 8.504 16.2965 8.8 15.5925 9.2L14.5125 6.392C14.9125 6.104 15.4245 5.848 16.0485 5.624C16.6725 5.4 17.3285 5.232 18.0165 5.12C18.7045 4.992 19.3525 4.928 19.9605 4.928C21.9285 4.928 23.3845 5.352 24.3285 6.2C25.2885 7.048 25.7685 8.384 25.7685 10.208V17H21.7845V15.32C21.5765 15.928 21.2005 16.408 20.6565 16.76C20.1125 17.096 19.4485 17.264 18.6645 17.264ZM19.6245 14.48C20.2165 14.48 20.7125 14.288 21.1125 13.904C21.5285 13.52 21.7365 13.016 21.7365 12.392V11.96H20.8245C19.8805 11.96 19.1845 12.064 18.7365 12.272C18.3045 12.464 18.0885 12.776 18.0885 13.208C18.0885 13.576 18.2165 13.88 18.4725 14.12C18.7445 14.36 19.1285 14.48 19.6245 14.48ZM34.3931 17.264C32.6011 17.264 31.2731 16.848 30.4091 16.016C29.5451 15.184 29.1131 13.928 29.1131 12.248V8.336H26.9051V5.192H29.1131V1.76H33.3851V5.192H36.7451V8.336H33.3851V12.104C33.3851 13.256 33.9691 13.832 35.1371 13.832C35.3291 13.832 35.5371 13.816 35.7611 13.784C36.0011 13.736 36.2651 13.672 36.5531 13.592L37.1291 16.664C36.7611 16.856 36.3291 17 35.8331 17.096C35.3371 17.208 34.8571 17.264 34.3931 17.264ZM71.3256 17.264C70.0136 17.264 68.8696 17.016 67.8936 16.52C66.9176 16.024 66.1576 15.312 65.6136 14.384C65.0696 13.456 64.7976 12.36 64.7976 11.096C64.7976 9.816 65.0696 8.72 65.6136 7.808C66.1576 6.88 66.9176 6.168 67.8936 5.672C68.8696 5.176 70.0136 4.928 71.3256 4.928C72.6376 4.928 73.7816 5.176 74.7576 5.672C75.7336 6.168 76.4856 6.88 77.0136 7.808C77.5576 8.72 77.8296 9.816 77.8296 11.096C77.8296 12.36 77.5576 13.456 77.0136 14.384C76.4856 15.312 75.7336 16.024 74.7576 16.52C73.7816 17.016 72.6376 17.264 71.3256 17.264ZM71.3256 14.12C71.9656 14.12 72.4936 13.88 72.9096 13.4C73.3256 12.92 73.5336 12.152 73.5336 11.096C73.5336 10.024 73.3256 9.256 72.9096 8.792C72.4936 8.312 71.9656 8.072 71.3256 8.072C70.6696 8.072 70.1336 8.312 69.7176 8.792C69.3016 9.256 69.0936 10.024 69.0936 11.096C69.0936 12.152 69.3016 12.92 69.7176 13.4C70.1336 13.88 70.6696 14.12 71.3256 14.12ZM85.7631 17.264C84.4511 17.264 83.3071 17.016 82.3311 16.52C81.3551 16.024 80.5951 15.312 80.0511 14.384C79.5071 13.456 79.2351 12.36 79.2351 11.096C79.2351 9.816 79.5071 8.72 80.0511 7.808C80.5951 6.88 81.3551 6.168 82.3311 5.672C83.3071 5.176 84.4511 4.928 85.7631 4.928C87.0751 4.928 88.2191 5.176 89.1951 5.672C90.1711 6.168 90.9231 6.88 91.4511 7.808C91.9951 8.72 92.2671 9.816 92.2671 11.096C92.2671 12.36 91.9951 13.456 91.4511 14.384C90.9231 15.312 90.1711 16.024 89.1951 16.52C88.2191 17.016 87.0751 17.264 85.7631 17.264ZM85.7631 14.12C86.4031 14.12 86.9311 13.88 87.3471 13.4C87.7631 12.92 87.9711 12.152 87.9711 11.096C87.9711 10.024 87.7631 9.256 87.3471 8.792C86.9311 8.312 86.4031 8.072 85.7631 8.072C85.1071 8.072 84.5711 8.312 84.1551 8.792C83.7391 9.256 83.5311 10.024 83.5311 11.096C83.5311 12.152 83.7391 12.92 84.1551 13.4C84.5711 13.88 85.1071 14.12 85.7631 14.12ZM98.8326 17.264C97.8246 17.264 96.9286 17.016 96.1446 16.52C95.3766 16.024 94.7686 15.312 94.3206 14.384C93.8886 13.456 93.6726 12.36 93.6726 11.096C93.6726 9.816 93.8886 8.72 94.3206 7.808C94.7686 6.88 95.3766 6.168 96.1446 5.672C96.9286 5.176 97.8246 4.928 98.8326 4.928C99.5846 4.928 100.273 5.088 100.897 5.408C101.537 5.712 102.025 6.112 102.361 6.608V0.079999H106.633V17H102.457V15.368C102.153 15.944 101.673 16.408 101.017 16.76C100.361 17.096 99.6326 17.264 98.8326 17.264ZM100.201 14.12C100.841 14.12 101.369 13.88 101.785 13.4C102.201 12.92 102.409 12.152 102.409 11.096C102.409 10.024 102.201 9.256 101.785 8.792C101.369 8.312 100.841 8.072 100.201 8.072C99.5446 8.072 99.0086 8.312 98.5926 8.792C98.1766 9.256 97.9686 10.024 97.9686 11.096C97.9686 12.152 98.1766 12.92 98.5926 13.4C99.0086 13.88 99.5446 14.12 100.201 14.12Z" fill="black"/>
<path d="M43.1239 17.264C42.0359 17.264 41.0279 17.152 40.0999 16.928C39.1879 16.704 38.4119 16.392 37.7719 15.992L38.7559 13.232C39.3479 13.568 40.0359 13.848 40.8199 14.072C41.6039 14.28 42.3799 14.384 43.1479 14.384C43.7399 14.384 44.1639 14.304 44.4199 14.144C44.6759 13.968 44.8039 13.744 44.8039 13.472C44.8039 13.232 44.7159 13.056 44.5399 12.944C44.3799 12.816 44.1479 12.72 43.8439 12.656L41.1799 12.224C40.1879 12.064 39.4199 11.704 38.8759 11.144C38.3319 10.584 38.0599 9.856 38.0599 8.96C38.0599 8.128 38.2919 7.416 38.7559 6.824C39.2199 6.216 39.8679 5.752 40.6999 5.432C41.5319 5.096 42.4839 4.928 43.5559 4.928C44.4039 4.928 45.2439 5.032 46.0759 5.24C46.9079 5.432 47.6359 5.752 48.2599 6.2L47.2039 8.912C46.7399 8.592 46.1639 8.328 45.4759 8.12C44.7879 7.896 44.1719 7.784 43.6279 7.784C42.9719 7.784 42.5079 7.88 42.2359 8.072C41.9639 8.248 41.8279 8.464 41.8279 8.72C41.8279 9.152 42.1239 9.416 42.7159 9.512L45.3799 9.968C46.4039 10.128 47.1879 10.48 47.7319 11.024C48.2919 11.552 48.5719 12.272 48.5719 13.184C48.5719 14.48 48.0759 15.488 47.0839 16.208C46.0919 16.912 44.7719 17.264 43.1239 17.264ZM56.1821 21.584C54.9981 21.584 53.8861 21.472 52.8461 21.248C51.8221 21.024 50.9421 20.656 50.2061 20.144L51.3101 17.264C51.9181 17.632 52.6381 17.92 53.4701 18.128C54.3181 18.336 55.0861 18.44 55.7741 18.44C56.7501 18.44 57.4781 18.232 57.9581 17.816C58.4541 17.416 58.7021 16.784 58.7021 15.92V14.816C58.3661 15.392 57.8621 15.848 57.1901 16.184C56.5181 16.52 55.7981 16.688 55.0301 16.688C53.9741 16.688 53.0541 16.448 52.2701 15.968C51.4861 15.472 50.8701 14.784 50.4221 13.904C49.9901 13.024 49.7741 11.992 49.7741 10.808C49.7741 9.624 49.9901 8.592 50.4221 7.712C50.8701 6.832 51.4861 6.152 52.2701 5.672C53.0541 5.176 53.9741 4.928 55.0301 4.928C55.8301 4.928 56.5581 5.104 57.2141 5.456C57.8861 5.792 58.3741 6.24 58.6781 6.8V5.192H62.8541V15.416C62.8541 17.48 62.2781 19.024 61.1261 20.048C59.9741 21.072 58.3261 21.584 56.1821 21.584ZM56.3501 13.544C57.0541 13.544 57.6141 13.304 58.0301 12.824C58.4461 12.344 58.6541 11.672 58.6541 10.808C58.6541 9.944 58.4461 9.272 58.0301 8.792C57.6141 8.312 57.0541 8.072 56.3501 8.072C55.6621 8.072 55.1101 8.312 54.6941 8.792C54.2781 9.272 54.0701 9.944 54.0701 10.808C54.0701 11.672 54.2781 12.344 54.6941 12.824C55.1101 13.304 55.6621 13.544 56.3501 13.544Z" fill="#FD7463"/>
</svg>
